HIERARCHY
ROOT RootJoint
{
    OFFSET   0.000000   0.000000   0.000000
    CHANNELS 6 Xposition Yposition Zposition Xrotation Yrotation Zrotation
    JOINT pelvis_lowerback
    {
        OFFSET   0.000000   0.093605   0.000000
        CHANNELS 3 Xrotation Yrotation Zrotation
        JOINT lowerback_torso
        {
            OFFSET   0.000000   0.100000   0.000000
            CHANNELS 3 Xrotation Yrotation Zrotation
            JOINT torso_head
            {
                OFFSET   0.000000   0.282350   0.000000
                CHANNELS 3 Xrotation Yrotation Zrotation
                End Site
                {
                    OFFSET   0.000000   0.192650   0.000000
                }
            }
            JOINT rTorso_Clavicle
            {
                OFFSET  -0.001000   0.157500   0.000000
                CHANNELS 3 Xrotation Yrotation Zrotation
                JOINT rShoulder
                {
                    OFFSET  -0.117647   0.000000   0.000000
                    CHANNELS 3 Xrotation Yrotation Zrotation
                    JOINT rElbow
                    {
                        OFFSET  -0.245000   0.000000   0.000000
                        CHANNELS 3 Xrotation Yrotation Zrotation
                        JOINT rWrist
                        {
                            OFFSET  -0.240000   0.000000   0.000000
                            CHANNELS 3 Xrotation Yrotation Zrotation
                            End Site
                            {
                                OFFSET  -0.116353  -0.002500   0.000000
                            }
                        }
                    }
                }
            }
            JOINT lTorso_Clavicle
            {
                OFFSET   0.001000   0.157500   0.000000
                CHANNELS 3 Xrotation Yrotation Zrotation
                JOINT lShoulder
                {
                    OFFSET   0.117647   0.000000   0.000000
                    CHANNELS 3 Xrotation Yrotation Zrotation
                    JOINT lElbow
                    {
                        OFFSET   0.245000   0.000000   0.000000
                        CHANNELS 3 Xrotation Yrotation Zrotation
                        JOINT lWrist
                        {
                            OFFSET   0.240000   0.000000   0.000000
                            CHANNELS 3 Xrotation Yrotation Zrotation
                            End Site
                            {
                                OFFSET   0.116353  -0.002500   0.000000
                            }
                        }
                    }
                }
            }
        }
    }
    JOINT rHip
    {
        OFFSET  -0.100000  -0.051395   0.000000
        CHANNELS 3 Xrotation Yrotation Zrotation
        JOINT rKnee
        {
            OFFSET   0.000000  -0.410000   0.000000
            CHANNELS 3 Xrotation Yrotation Zrotation
            JOINT rAnkle
            {
                OFFSET   0.000000  -0.390000   0.000000
                CHANNELS 3 Xrotation Yrotation Zrotation
                JOINT rToeJoint
                {
                    OFFSET   0.000000  -0.050000   0.130000
                    CHANNELS 3 Xrotation Yrotation Zrotation
                    End Site
                    {
                        OFFSET  -0.010000   0.002000   0.060000
                    }
                }
            }
        }
    }
    JOINT lHip
    {
        OFFSET   0.100000  -0.051395   0.000000
        CHANNELS 3 Xrotation Yrotation Zrotation
        JOINT lKnee
        {
            OFFSET   0.000000  -0.410000   0.000000
            CHANNELS 3 Xrotation Yrotation Zrotation
            JOINT lAnkle
            {
                OFFSET   0.000000  -0.390000   0.000000
                CHANNELS 3 Xrotation Yrotation Zrotation
                JOINT lToeJoint
                {
                    OFFSET   0.000000  -0.050000   0.130000
                    CHANNELS 3 Xrotation Yrotation Zrotation
                    End Site
                    {
                        OFFSET   0.010000   0.002000   0.060000
                    }
                }
            }
        }
    }
}
MOTION
Frames: 7
Frame Time:   0.008333
 -2.319373   1.018984   4.309250  -0.460159   9.267836  -3.899110   7.567785  -1.226625   5.820020  -3.664667  -5.310183  -0.319941  -0.123937  -3.450597  -2.365180   0.694439   1.129640 -13.726492   6.552420   3.502037  32.826942  -0.027748  73.039728   0.023775   2.528744   4.102883  -4.525625   1.671137  -5.120413   4.916701   0.441118 -14.357872 -37.762450  -0.011199 -61.965771  -0.003988  -0.382418  -8.805955   6.507715 -11.649166  -5.122311  -0.132149  51.791028  -0.003410  -0.008211  15.679582  -5.679998   7.812974  -0.859078  -0.007270   0.007187  -0.886783  -3.372068   6.309185  30.993112  -0.001731  -0.018531  33.633129  -1.820646  -4.793600 -15.580310   0.053460   0.019786
 -2.317746   1.029360   4.318167  -0.978103   9.295026  -3.305621   7.342775  -1.120507   5.213628  -3.509429  -5.463873  -0.313875   0.078610  -3.331902  -2.284686   0.895555   0.999266 -13.115965   6.818270   3.809358  32.872994  -0.024468  72.643969   0.019123   2.705229   4.033116  -4.499020   1.765713  -5.127967   4.445633   0.419420 -14.394041 -37.929048  -0.006812 -61.415635   0.001846  -0.264729  -9.004154   6.363774 -11.327601  -4.717078  -0.671005  50.993601  -0.004357  -0.007763  16.216982  -5.442779   7.831701  -0.580174  -0.005246   0.006726  -0.461307  -3.140670   5.839943  30.931552  -0.001410  -0.014943  31.783928  -1.614824  -5.051569 -13.184184   0.050313   0.019232
 -2.316322   1.039123   4.326520  -1.529458   9.245901  -2.642599   7.259475  -0.949756   4.528566  -3.300413  -5.546741  -0.376741   0.262292  -3.212625  -2.231429   1.073936   0.964154 -12.435538   7.034795   4.145127  32.965323  -0.023615  72.250933   0.017249   2.857496   3.799233  -4.527088   1.824597  -5.160874   3.999316   0.376102 -14.418171 -38.056387  -0.004177 -60.871105   0.005890  -0.168817  -9.037611   6.340844 -10.997065  -4.284913  -1.251618  50.190473  -0.004780  -0.007247  16.702555  -5.222674   7.843779  -0.419133  -0.003939   0.005913  -0.219099  -2.912260   5.298367  31.095902  -0.001103  -0.011703  30.040277  -1.414181  -5.288300 -11.216343   0.045635   0.017481
 -2.315064   1.048249   4.334524  -2.087863   9.157364  -1.990056   7.253244  -0.739302   3.850557  -3.044731  -5.577375  -0.465060   0.440828  -3.100607  -2.195793   1.244384   0.984004 -11.760401   7.226635   4.495201  33.075353  -0.023662  71.889281   0.016827   3.001982   3.573031  -4.504388   1.880186  -5.196899   3.570853   0.334852 -14.442079 -38.180544  -0.002973 -60.358987   0.008237  -0.082237  -9.025512   6.337523 -10.661511  -3.881068  -1.800849  49.416237  -0.004703  -0.006642  17.154161  -5.017701   7.852941  -0.275898  -0.002991   0.005172  -0.077863  -2.707990   4.776727  31.268004  -0.000902  -0.009151  28.415483  -1.219901  -5.503353  -9.417850   0.040529   0.015370
 -2.313936   1.056712   4.342280  -2.643509   9.053185  -1.362881   7.301889  -0.505717   3.196825  -2.759055  -5.571187  -0.563706   0.613651  -2.995846  -2.168403   1.404788   1.037634 -11.112095   7.398318   4.846397  33.189080  -0.023796  71.557857   0.016922   3.142798   3.385957  -4.434251   1.939630  -5.229849   3.157379   0.301708 -14.464686 -38.306067  -0.002606 -59.879123   0.009440  -0.001317  -8.998419   6.315955 -10.324771  -3.511916  -2.308482  48.688878  -0.004336  -0.006037  17.575118  -4.826354   7.860012  -0.145729  -0.002290   0.004519  -0.015538  -2.528167   4.290934  31.412535  -0.000768  -0.007166  26.899316  -1.032343  -5.698598  -7.772511   0.035459   0.013286
 -2.312908   1.064493   4.349859  -3.192949   8.947141  -0.762759   7.391250  -0.259684   2.571850  -2.455018  -5.538642  -0.667745   0.780023  -2.897936  -2.145576   1.553828   1.112243 -10.498474   7.552445   5.190634  33.300094  -0.023693  71.253277   0.017074   3.280297   3.234633  -4.335221   2.004063  -5.257458   2.759059   0.277730 -14.484605 -38.432399  -0.002650 -59.429140   0.009934   0.074696  -8.960431   6.269508  -9.986872  -3.175045  -2.776017  48.012816  -0.003839  -0.005489  17.967865  -4.647647   7.865346  -0.026708  -0.001761   0.003951  -0.017843  -2.369111   3.841720  31.526512  -0.000667  -0.005618  25.483975  -0.852082  -5.875972  -6.267963   0.030715   0.011415
 -2.311955   1.071581   4.357313  -3.734579   8.846864  -0.188771   7.510352  -0.008270   1.976625  -2.141263  -5.486943  -0.775005   0.939500  -2.806437  -2.125793   1.691287   1.199553  -9.922201   7.691212   5.523226  33.405391  -0.023256  70.972507   0.017075   3.414180   3.111223  -4.221042   2.072905  -5.278844   2.376839   0.262417 -14.501005 -38.558086  -0.002836 -59.006873   0.010010   0.146076  -8.911808   6.200851  -9.647905  -2.867192  -3.206846  47.387368  -0.003309  -0.005016  18.334468  -4.480745   7.869198   0.082595  -0.001356   0.003462  -0.072780  -2.227131   3.426733  31.613106  -0.000581  -0.004407  24.162644  -0.679527  -6.037241  -4.892191   0.026434   0.009816
